<svg width="63" height="68" viewBox="0 0 63 68" fill="none" xmlns="http://www.w3.org/2000/svg">
<path d="M0.967285 49.1434L4.55552 44.0828H58.4948L61.9673 49.1434H0.967285Z" fill="white" stroke="white"/>
<path d="M13.699 39.2291H6.40674L31.6401 0.913216L34.9969 6.07708L13.699 39.2291Z" fill="white" stroke="white"/>
<path d="M43.7955 21.6723L38.471 13.3068L33.0308 21.6723L38.471 29.7279L43.7955 21.6723Z" fill="white" stroke="white"/>
<path d="M38.4697 29.8309L33.0294 21.672L21.9175 39.1259H32.2192L38.4697 29.8309Z" fill="#3C7CD2" stroke="#3C7CD2"/>
<path d="M44.4892 39.1261L38.4702 29.8312L32.104 39.1261H44.4892Z" fill="#125FC5" stroke="#125FC5"/>
<path d="M9.30349 66.7011H8.146L12.6602 56.6832L13.239 57.8193L10.8594 63.1897L10.4475 64.1192L9.30349 66.7011Z" fill="white" stroke="white"/>
<path d="M17.2882 66.5978L13.2369 57.8192L12.7739 59.0585L16.0149 66.5978H17.2882Z" fill="white" stroke="white"/>
<path d="M14.5136 63.1896H10.8097L10.4624 64.1191H14.9766L14.5136 63.1896Z" fill="white" stroke="white"/>
<path d="M48.0769 66.7011H46.9194L51.4337 56.6832L52.0124 57.8193L49.6328 63.1897L49.221 64.1192L48.0769 66.7011Z" fill="white" stroke="white"/>
<path d="M56.0626 66.5978L52.0113 57.8192L51.5483 59.0585L54.7893 66.5978H56.0626Z" fill="white" stroke="white"/>
<path d="M53.288 63.1896H49.5841L49.2368 64.1191H53.751L53.288 63.1896Z" fill="white" stroke="white"/>
<path d="M35.6916 59.2646H34.4184C34.4184 58.1286 30.1357 57.3024 29.6727 59.4712C29.3254 62.0531 36.3861 60.4007 36.1546 64.3252C36.1546 65.9777 34.0711 66.8414 32.4506 66.9071C29.9041 67.0104 28.6309 65.7711 28.2837 64.4285H28.8624H29.5569C30.5987 67.0104 35.306 65.7711 34.9971 64.2219C34.4823 61.64 28.6309 63.0859 28.6309 59.6777C28.9782 55.7532 35.9231 56.9925 35.6916 59.2646Z" fill="white" stroke="white"/>
<path d="M43.7947 21.672L38.4702 29.8309L44.4892 39.1259H55.0224L43.7947 21.672Z" fill="#00379A" stroke="#00379A"/>
<path d="M36.0255 23.4903L33.9282 19.8182L20.8784 39.3327H26.1216L36.0255 23.4903Z" fill="#6C90C4" stroke="#6C90C4"/>
<path d="M40.5687 16.5654L36.0245 23.4899L33.9272 19.7129L38.3549 12.8933L40.5687 16.5654Z" fill="#CACACA" stroke="#CACACA"/>
<path d="M36.0271 23.4897L47.0961 39.3321H26.2397L36.0271 23.4897Z" fill="#6189BD" stroke="#6189BD"/>
<path d="M56.0647 39.3329H46.8599L36.0239 23.4905L40.67 16.7152L56.0647 39.3329Z" fill="#28599E" stroke="#28599E"/>
</svg>
